<svg
  xmlns="http://www.w3.org/2000/svg"
  width="1894"
  height="324"
  fill="none"
  role="img"
  aria-label="Fractal Engine Logo"
>
  <g fill="#000">
    <path
      d="M1521.94 137.1c8.78 0 16.67 1.708 23.67 5.124 6.99 3.253 12.77 7.889 17.32 13.908 1.47 1.871 2.77 3.852 3.9 5.942V139.54h12.45v109.068c0 11.062-2.52 20.659-7.56 28.792-4.88 8.134-11.8 14.477-20.74 19.032-8.95 4.717-19.36 7.076-31.24 7.076-11.06 0-21.06-2.115-30.01-6.344-8.95-4.067-16.1-10.004-21.47-17.812l7.81-7.808c4.39 6.181 10.33 11.061 17.81 14.64 7.48 3.741 16.18 5.612 26.11 5.612 14.47 0 25.86-3.904 34.16-11.712 8.46-7.808 12.68-18.3 12.68-31.476v-21.586a46.88 46.88 0 0 1-4.14 6.458c-4.56 6.019-10.33 10.654-17.33 13.908-6.83 3.253-14.56 4.88-23.18 4.88-10.73 0-20.41-2.44-29.03-7.32-8.46-5.042-15.13-11.875-20.01-20.496-4.88-8.784-7.32-18.707-7.32-29.768 0-10.899 2.44-20.659 7.32-29.28 4.88-8.784 11.55-15.697 20.01-20.74s18.05-7.564 28.79-7.564zm1.95 11.712c-8.78 0-16.59 1.952-23.42 5.856s-12.2 9.272-16.11 16.104c-3.9 6.832-5.85 14.722-5.85 23.668s1.95 16.917 5.85 23.912c3.91 6.994 9.28 12.526 16.11 16.592 6.99 3.904 14.96 5.856 23.91 5.856 8.46 0 15.94-1.87 22.45-5.612a39.6 39.6 0 0 0 15.37-16.104c3.58-6.995 5.37-15.128 5.37-24.4 0-9.109-1.87-17.08-5.61-23.912-3.58-6.832-8.63-12.2-15.13-16.104-6.51-3.904-14.15-5.856-22.94-5.856zM680.04 133.44c8.947 0 16.836 1.952 23.668 5.856 4.739 2.535 8.805 5.742 12.2 9.621V135.88h26.84V253h-26.84v-12.857c-3.295 3.846-7.279 7.075-11.956 9.685-6.995 3.741-14.965 5.612-23.912 5.612-10.573 0-20.171-2.684-28.792-8.052-8.459-5.368-15.209-12.607-20.252-21.716-4.88-9.272-7.32-19.602-7.32-30.988 0-11.549 2.44-21.879 7.32-30.988 5.043-9.272 11.793-16.592 20.252-21.96 8.621-5.53 18.219-8.296 28.792-8.296zm4.393 25.376c-6.507 0-12.282 1.546-17.325 4.636-4.88 2.928-8.784 7.076-11.712 12.444-2.765 5.368-4.148 11.55-4.148 18.544s1.383 13.176 4.148 18.544c2.928 5.368 6.833 9.597 11.712 12.688 5.043 2.928 10.818 4.392 17.325 4.392 9.922 0 17.892-3.335 23.911-10.004 6.181-6.67 9.272-15.209 9.272-25.62 0-6.994-1.383-13.176-4.148-18.544s-6.669-9.516-11.712-12.444c-4.88-3.09-10.654-4.636-17.323-4.636z"
      fill-rule="evenodd"
    />
    <path d="M824.02 133.44c9.109 0 17.568 1.789 25.376 5.368 7.97 3.416 14.721 8.378 20.251 14.884l-17.568 17.812c-3.416-4.067-7.563-7.076-12.443-9.028-4.718-2.115-9.923-3.172-15.616-3.172-6.67 0-12.608 1.546-17.813 4.636-5.042 2.928-9.028 6.995-11.956 12.2-2.765 5.205-4.147 11.306-4.147 18.3 0 6.832 1.382 12.932 4.147 18.3 2.928 5.205 6.914 9.353 11.956 12.444 5.205 2.928 11.143 4.392 17.813 4.392 5.693 0 10.898-.976 15.616-2.928a33.34 33.34 0 0 0 12.443-9.272l17.568 17.812c-5.53 6.507-12.281 11.55-20.251 15.128-7.808 3.416-16.267 5.124-25.376 5.124-11.55 0-22.042-2.684-31.477-8.052-9.272-5.368-16.592-12.688-21.96-21.96s-8.052-19.601-8.052-30.988c0-11.549 2.684-21.879 8.052-30.988 5.368-9.272 12.688-16.592 21.96-21.96 9.435-5.368 19.927-8.052 31.477-8.052z" />
    <path
      d="M1020.13 133.44c8.95 0 16.84 1.952 23.67 5.856 4.74 2.535 8.81 5.742 12.2 9.621V135.88h26.84V253H1056v-12.857c-3.29 3.846-7.28 7.075-11.95 9.685-7 3.741-14.97 5.612-23.92 5.612-10.57 0-20.167-2.684-28.788-8.052-8.459-5.368-15.21-12.607-20.252-21.716-4.88-9.272-7.319-19.602-7.319-30.988 0-11.549 2.439-21.879 7.319-30.988 5.042-9.272 11.793-16.592 20.252-21.96 8.621-5.53 18.218-8.295 28.788-8.296zm4.4 25.376c-6.51 0-12.29 1.545-17.33 4.636-4.88 2.928-8.782 7.077-11.71 12.444-2.765 5.368-4.148 11.55-4.148 18.544s1.383 13.176 4.148 18.544c2.928 5.368 6.83 9.597 11.71 12.688 5.04 2.928 10.82 4.392 17.33 4.392 9.92 0 17.89-3.335 23.91-10.004 6.18-6.67 9.27-15.209 9.27-25.62 0-6.994-1.38-13.176-4.15-18.544-2.76-5.367-6.67-9.516-11.71-12.444-4.88-3.09-10.65-4.636-17.32-4.636zm816.34-21.716c10.41 0 19.52 2.358 27.32 7.076 7.98 4.554 14.16 10.899 18.55 19.032 4.55 8.133 6.83 17.486 6.83 28.06 0 .976-.08 2.277-.24 3.904-.17 1.464-.41 3.335-.74 5.612h-97.14c.59 7.556 2.47 14.306 5.64 20.252 4.07 7.157 9.68 12.769 16.84 16.836 7.16 3.904 15.54 5.856 25.13 5.856 7.32 0 14.07-1.301 20.25-3.904 6.35-2.765 11.63-6.832 15.86-12.2l8.3 8.052c-5.2 6.181-11.79 11.062-19.76 14.64-7.81 3.416-16.27 5.124-25.38 5.124-11.22 0-21.39-2.603-30.5-7.808-8.95-5.205-16.02-12.281-21.23-21.228-5.2-8.946-7.81-19.032-7.81-30.256s2.53-21.228 7.57-30.012c5.04-8.947 11.95-16.023 20.74-21.228 8.95-5.205 18.87-7.808 29.77-7.808zm-.25 11.468c-8.94 0-16.83 2.033-23.67 6.1-6.83 3.904-12.2 9.353-16.1 16.348-3 5.611-4.8 11.955-5.39 19.032h85.95c-.12-7.532-1.6-14.202-4.43-20.008-3.25-6.832-7.97-12.119-14.15-15.86-6.19-3.742-13.59-5.612-22.21-5.612z"
      fill-rule="evenodd"
    />
    <path d="M515.832 82.2v25.62h-82.228v46.36h78.08v25.62h-78.08V253h-28.06V82.2h110.288zm79.155 51.24c5.856 0 11.142 1.058 15.86 3.172s9.11 5.531 13.176 10.248l-17.568 18.056c-2.115-2.277-4.473-3.904-7.076-4.88s-5.612-1.464-9.027-1.464c-7.483 0-13.665 2.359-18.545 7.076s-7.32 12.119-7.32 22.204V253h-26.84V135.88h26.84v12.168l.489-.7c6.669-9.272 16.673-13.908 30.011-13.908zm334.317 2.44h28.059v24.4h-28.059V253h-26.841v-92.72h-28.06v-24.4h28.06v-48.8h26.841v48.8zM1137.03 253h-26.84V77.32h26.84V253zm176.56-154.696h-94.18v63.684h87.84v11.224h-87.84v68.076h95.4V253h-108.33V86.592h107.11v11.712zm82.44 38.796c8.95 0 16.76 2.115 23.43 6.344 6.83 4.067 12.11 9.679 15.86 16.836 3.74 7.158 5.61 15.128 5.61 23.912V253h-12.2v-67.344c0-11.061-3.26-20.008-9.76-26.84-6.51-6.832-15.13-10.248-25.87-10.248-7.32 0-13.82 1.627-19.52 4.88-5.53 3.091-9.92 7.401-13.17 12.932-3.09 5.531-4.64 11.956-4.64 19.276V253h-12.44V139.54h12.44v19.116c4.04-6.64 9.49-11.873 16.35-15.7 6.99-3.904 14.96-5.856 23.91-5.856zM1625.87 253h-12.2V139.54h12.2V253zm87.38-115.9c8.95 0 16.76 2.115 23.42 6.344 6.84 4.067 12.12 9.679 15.86 16.836 3.75 7.158 5.62 15.128 5.62 23.912V253h-12.2v-67.344c0-11.061-3.26-20.008-9.76-26.84-6.51-6.832-15.13-10.248-25.87-10.248-7.32 0-13.82 1.627-19.52 4.88-5.53 3.091-9.92 7.401-13.17 12.932-3.09 5.531-4.64 11.956-4.64 19.276V253h-12.44V139.54h12.44v19.117c4.04-6.64 9.49-11.874 16.35-15.701 6.99-3.904 14.96-5.856 23.91-5.856zm-93.48-43.92a9.63 9.63 0 0 1 7.07 2.929c1.96 1.789 2.93 4.067 2.93 6.832s-.97 5.205-2.93 7.32c-1.95 1.952-4.31 2.928-7.07 2.928-2.77 0-5.13-.976-7.08-2.928-1.79-2.115-2.68-4.554-2.68-7.32s.89-5.042 2.68-6.832c1.95-1.952 4.31-2.929 7.08-2.929z" />
  </g>
  <g fill-rule="evenodd">
    <path
      d="M204.276 221.456c23.457 23.458 23.457 61.492 0 84.95s-61.488 23.459-84.945 0l-42.473-42.475 33.978-33.98-17.267-17.269a60.32 60.32 0 0 0 8.969-7.393l8.808-8.809 16.48 16.481 33.977-33.98 42.473 42.475zm-59.462 8.495l22.652 22.653-16.989 16.99-22.651-22.653-16.99 16.99 25.483 25.485c14.074 14.075 36.894 14.075 50.968 0s14.074-36.895 0-50.97l-25.484-25.485-16.989 16.99z"
      fill="url(#A)"
    />
    <path
      d="M94.044 111.844l18.267-18.27c2.131 3.164 4.595 6.171 7.394 8.97l8.807 8.808-17.48 17.482 33.979 33.98-42.472 42.475c-23.457 23.458-61.489 23.458-84.946 0s-23.457-61.492 0-84.95l42.473-42.476 33.978 33.981zm-59.462 25.484c-14.074 14.075-14.074 36.896 0 50.971s36.893 14.075 50.968 0l25.483-25.485-16.988-16.991-22.653 22.654-16.989-16.99 22.653-22.653-16.989-16.99-25.484 25.484z"
      fill="url(#B)"
    />
    <path
      d="M119.704 17.594c23.457-23.458 61.489-23.458 84.946 0l42.472 42.476-33.977 33.98 17.768 17.769c-3.341 2.204-6.51 4.776-9.451 7.716l-8.406 8.406-16.9-16.902-33.979 33.981-42.473-42.476c-23.456-23.458-23.457-61.492 0-84.95zm67.957 16.99c-14.074-14.075-36.893-14.075-50.968 0s-14.074 36.896 0 50.971l25.484 25.484 16.989-16.989-22.652-22.654 16.989-16.99 22.653 22.654 16.989-16.99-25.484-25.485z"
      fill="url(#C)"
    />
    <path
      d="M221.462 119.534c23.457-23.458 61.488-23.458 84.945 0s23.457 61.493 0 84.952l-42.472 42.474-33.978-33.98-17.951 17.951c-2.207-3.35-4.783-6.527-7.731-9.475l-8.386-8.387 17.079-17.079-33.979-33.98 42.473-42.476zm67.956 16.991c-14.074-14.075-36.893-14.075-50.967 0l-25.483 25.485L229.957 179l22.651-22.654 16.99 16.99-22.652 22.654 16.989 16.99 25.483-25.485c14.074-14.075 14.074-36.895 0-50.97z"
      fill="url(#D)"
    />
  </g>
  <defs>
    <linearGradient
      id="A"
      x1="202.023"
      y1="299.472"
      x2="100.407"
      y2="204.87"
      href="#E"
    >
      <stop offset=".1" stop-color="#f2aa30" />
      <stop offset="1" stop-color="#985a09" />
    </linearGradient>
    <linearGradient
      id="B"
      x1="24.526"
      y1="203.036"
      x2="119.135"
      y2="101.425"
      href="#E"
    >
      <stop offset=".1" stop-color="#f2aa30" />
      <stop offset="1" stop-color="#985a09" />
    </linearGradient>
    <linearGradient
      id="C"
      x1="121.957"
      y1="24.528"
      x2="223.574"
      y2="119.13"
      href="#E"
    >
      <stop offset=".1" stop-color="#f2aa30" />
      <stop offset="1" stop-color="#985a09" />
    </linearGradient>
    <linearGradient
      id="D"
      x1="299.474"
      y1="121.787"
      x2="204.865"
      y2="223.398"
      href="#E"
    >
      <stop offset=".096" stop-color="#f2aa30" />
      <stop offset="1" stop-color="#985a09" />
    </linearGradient>
    <linearGradient id="E" gradientUnits="userSpaceOnUse" />
  </defs>
</svg>